<svg width="48" height="48" viewBox="0 0 48 48" fill="none" xmlns="http://www.w3.org/2000/svg">
<g filter="url(#filter0_dd_8_222)">
<path d="M31.4308 17.2749C30.1561 16.6848 28.7892 16.2501 27.3599 16.001C27.3339 15.9962 27.3079 16.0082 27.2945 16.0323C27.1187 16.3477 26.9239 16.7593 26.7876 17.0827C25.2503 16.8506 23.721 16.8506 22.2153 17.0827C22.0789 16.7521 21.8771 16.3477 21.7005 16.0323C21.6871 16.0091 21.6611 15.997 21.635 16.001C20.2066 16.2493 18.8396 16.684 17.5641 17.2749C17.5531 17.2797 17.5436 17.2877 17.5373 17.2981C14.9445 21.2062 14.2342 25.0183 14.5827 28.783C14.5842 28.8014 14.5945 28.8191 14.6087 28.8303C16.3193 30.0977 17.9764 30.8672 19.6027 31.3772C19.6288 31.3852 19.6563 31.3756 19.6729 31.354C20.0576 30.824 20.4005 30.2651 20.6946 29.6774C20.7119 29.6429 20.6954 29.6021 20.6599 29.5885C20.1159 29.3803 19.598 29.1265 19.0998 28.8383C19.0604 28.8151 19.0572 28.7582 19.0935 28.731C19.1983 28.6517 19.3032 28.5692 19.4033 28.486C19.4214 28.4708 19.4466 28.4675 19.4679 28.4771C22.7411 29.9848 26.2846 29.9848 29.5191 28.4771C29.5404 28.4667 29.5657 28.47 29.5846 28.4852C29.6847 28.5684 29.7896 28.6517 29.8952 28.731C29.9314 28.7582 29.9291 28.8151 29.8897 28.8383C29.3914 29.1321 28.8735 29.3803 28.3288 29.5877C28.2933 29.6013 28.2775 29.6429 28.2949 29.6774C28.5952 30.2643 28.9381 30.8231 29.3157 31.3532C29.3315 31.3756 29.3599 31.3852 29.3859 31.3772C31.0201 30.8672 32.6772 30.0977 34.3879 28.8303C34.4028 28.8191 34.4123 28.8022 34.4139 28.7838C34.8309 24.4313 33.7154 20.6506 31.4568 17.2989C31.4513 17.2877 31.4419 17.2797 31.4308 17.2749ZM21.1834 26.4907C20.1979 26.4907 19.3859 25.5779 19.3859 24.457C19.3859 23.336 20.1822 22.4233 21.1834 22.4233C22.1924 22.4233 22.9965 23.344 22.9807 24.457C22.9807 25.5779 22.1845 26.4907 21.1834 26.4907ZM27.829 26.4907C26.8435 26.4907 26.0316 25.5779 26.0316 24.457C26.0316 23.336 26.8278 22.4233 27.829 22.4233C28.838 22.4233 29.6421 23.344 29.6264 24.457C29.6264 25.5779 28.838 26.4907 27.829 26.4907Z" fill="#FAF9F6"/>
</g>
<defs>
<filter id="filter0_dd_8_222" x="7.48" y="8.98" width="34.04" height="29.42" filterUnits="userSpaceOnUse" color-interpolation-filters="sRGB">
<feFlood flood-opacity="0" result="BackgroundImageFix"/>
<feColorMatrix in="SourceAlpha" type="matrix" values="0 0 0 0 0 0 0 0 0 0 0 0 0 0 0 0 0 0 127 0" result="hardAlpha"/>
<feOffset/>
<feGaussianBlur stdDeviation="1.755"/>
<feColorMatrix type="matrix" values="0 0 0 0 0.980392 0 0 0 0 0.976471 0 0 0 0 0.964706 0 0 0 1 0"/>
<feBlend mode="normal" in2="BackgroundImageFix" result="effect1_dropShadow_8_222"/>
<feColorMatrix in="SourceAlpha" type="matrix" values="0 0 0 0 0 0 0 0 0 0 0 0 0 0 0 0 0 0 127 0" result="hardAlpha"/>
<feOffset/>
<feGaussianBlur stdDeviation="3.51"/>
<feColorMatrix type="matrix" values="0 0 0 0 0.980392 0 0 0 0 0.976471 0 0 0 0 0.964706 0 0 0 1 0"/>
<feBlend mode="normal" in2="effect1_dropShadow_8_222" result="effect2_dropShadow_8_222"/>
<feBlend mode="normal" in="SourceGraphic" in2="effect2_dropShadow_8_222" result="shape"/>
</filter>
</defs>
</svg>
