<svg width="48" height="48" viewBox="0 0 48 48" fill="none" xmlns="http://www.w3.org/2000/svg">
<g filter="url(#filter0_dd_8_228)">
<path fill-rule="evenodd" clip-rule="evenodd" d="M25 14C22.284 14 21.944 14.0113 20.8773 14.06C19.8127 14.1087 19.0853 14.278 18.4493 14.5253C17.7827 14.776 17.178 15.1693 16.678 15.6787C16.1695 16.1781 15.7759 16.7823 15.5247 17.4493C15.2787 18.0853 15.1087 18.8133 15.06 19.878C15.012 20.944 15 21.2833 15 24C15 26.7167 15.0113 27.056 15.06 28.1227C15.1087 29.1873 15.278 29.9147 15.5253 30.5507C15.776 31.2173 16.1693 31.822 16.6787 32.322C17.1781 32.8305 17.7823 33.2241 18.4493 33.4753C19.0853 33.722 19.8127 33.8913 20.8773 33.94C21.944 33.9887 22.284 34 25 34C27.716 34 28.056 33.9887 29.1227 33.94C30.1873 33.8913 30.9147 33.722 31.5507 33.4747C32.2173 33.224 32.822 32.8307 33.322 32.3213C33.8305 31.8219 34.2241 31.2177 34.4753 30.5507C34.722 29.9147 34.8913 29.1873 34.94 28.1227C34.9887 27.056 35 26.716 35 24C35 21.284 34.9887 20.944 34.94 19.8773C34.8913 18.8127 34.722 18.0853 34.4747 17.4493C34.2236 16.782 33.83 16.1775 33.3213 15.678C32.8219 15.1695 32.2177 14.7759 31.5507 14.5247C30.9147 14.2787 30.1867 14.1087 29.122 14.06C28.056 14.012 27.7167 14 25 14ZM25 15.802C27.67 15.802 27.9867 15.812 29.0413 15.86C30.016 15.9047 30.5453 16.0667 30.898 16.2047C31.3647 16.3853 31.698 16.6027 32.048 16.952C32.398 17.302 32.6147 17.6353 32.7953 18.102C32.9327 18.4547 33.0953 18.984 33.14 19.9587C33.188 21.0133 33.198 21.33 33.198 24C33.198 26.67 33.188 26.9867 33.14 28.0413C33.0953 29.016 32.9333 29.5453 32.7953 29.898C32.6353 30.3324 32.3799 30.7253 32.048 31.048C31.7254 31.38 31.3324 31.6354 30.898 31.7953C30.5453 31.9327 30.016 32.0953 29.0413 32.14C27.9867 32.188 27.6707 32.198 25 32.198C22.3293 32.198 22.0133 32.188 20.9587 32.14C19.984 32.0953 19.4547 31.9333 19.102 31.7953C18.6676 31.6353 18.2747 31.3799 17.952 31.048C17.6201 30.7253 17.3648 30.3323 17.2047 29.898C17.0673 29.5453 16.9047 29.016 16.86 28.0413C16.812 26.9867 16.802 26.67 16.802 24C16.802 21.33 16.812 21.0133 16.86 19.9587C16.9047 18.984 17.0667 18.4547 17.2047 18.102C17.3853 17.6353 17.6027 17.302 17.952 16.952C18.2746 16.62 18.6676 16.3647 19.102 16.2047C19.4547 16.0673 19.984 15.9047 20.9587 15.86C22.0133 15.812 22.33 15.802 25 15.802Z" fill="#FAF9F6"/>
<path fill-rule="evenodd" clip-rule="evenodd" d="M25 27.3367C24.5618 27.3367 24.1279 27.2504 23.7231 27.0827C23.3183 26.915 22.9505 26.6692 22.6406 26.3594C22.3308 26.0496 22.085 25.6817 21.9173 25.2769C21.7496 24.8721 21.6633 24.4382 21.6633 24C21.6633 23.5618 21.7496 23.1279 21.9173 22.7231C22.085 22.3183 22.3308 21.9505 22.6406 21.6406C22.9505 21.3308 23.3183 21.085 23.7231 20.9173C24.1279 20.7496 24.5618 20.6633 25 20.6633C25.8849 20.6633 26.7336 21.0149 27.3594 21.6406C27.9851 22.2664 28.3367 23.1151 28.3367 24C28.3367 24.8849 27.9851 25.7336 27.3594 26.3594C26.7336 26.9851 25.8849 27.3367 25 27.3367ZM25 18.86C23.6368 18.86 22.3294 19.4015 21.3655 20.3655C20.4015 21.3294 19.86 22.6368 19.86 24C19.86 25.3632 20.4015 26.6706 21.3655 27.6345C22.3294 28.5985 23.6368 29.14 25 29.14C26.3632 29.14 27.6706 28.5985 28.6345 27.6345C29.5985 26.6706 30.14 25.3632 30.14 24C30.14 22.6368 29.5985 21.3294 28.6345 20.3655C27.6706 19.4015 26.3632 18.86 25 18.86ZM31.6353 18.7667C31.6353 19.0889 31.5073 19.398 31.2795 19.6258C31.0516 19.8537 30.7426 19.9817 30.4203 19.9817C30.0981 19.9817 29.7891 19.8537 29.5612 19.6258C29.3333 19.398 29.2053 19.0889 29.2053 18.7667C29.2053 18.4444 29.3333 18.1354 29.5612 17.9075C29.7891 17.6797 30.0981 17.5517 30.4203 17.5517C30.7426 17.5517 31.0516 17.6797 31.2795 17.9075C31.5073 18.1354 31.6353 18.4444 31.6353 18.7667Z" fill="#FAF9F6"/>
</g>
<defs>
<filter id="filter0_dd_8_228" x="9.6" y="8.6" width="30.8" height="30.8" filterUnits="userSpaceOnUse" color-interpolation-filters="sRGB">
<feFlood flood-opacity="0" result="BackgroundImageFix"/>
<feColorMatrix in="SourceAlpha" type="matrix" values="0 0 0 0 0 0 0 0 0 0 0 0 0 0 0 0 0 0 127 0" result="hardAlpha"/>
<feOffset/>
<feGaussianBlur stdDeviation="1.35"/>
<feColorMatrix type="matrix" values="0 0 0 0 0.980392 0 0 0 0 0.976471 0 0 0 0 0.964706 0 0 0 1 0"/>
<feBlend mode="normal" in2="BackgroundImageFix" result="effect1_dropShadow_8_228"/>
<feColorMatrix in="SourceAlpha" type="matrix" values="0 0 0 0 0 0 0 0 0 0 0 0 0 0 0 0 0 0 127 0" result="hardAlpha"/>
<feOffset/>
<feGaussianBlur stdDeviation="2.7"/>
<feColorMatrix type="matrix" values="0 0 0 0 0.980392 0 0 0 0 0.976471 0 0 0 0 0.964706 0 0 0 1 0"/>
<feBlend mode="normal" in2="effect1_dropShadow_8_228" result="effect2_dropShadow_8_228"/>
<feBlend mode="normal" in="SourceGraphic" in2="effect2_dropShadow_8_228" result="shape"/>
</filter>
</defs>
</svg>
