<svg width="48" height="48" viewBox="0 0 48 48" fill="none" xmlns="http://www.w3.org/2000/svg">
<g filter="url(#filter0_dd_8_225)">
<path fill-rule="evenodd" clip-rule="evenodd" d="M21.9722 24.5812L15 16H20.5225L24.8263 21.3038L29.4244 16.0239H32.4658L26.2969 23.116L33.6115 32.13H28.1056L23.4453 26.3943L18.4701 32.1141H15.4121L21.9722 24.5812ZM28.9081 30.5401L18.3862 17.5899H19.7193L30.228 30.5401H28.9081Z" fill="#FAF9F6"/>
<path d="M25.2034 21.6321L29.6519 16.5239H31.3682L25.9197 22.7879L25.6439 23.1048L25.9087 23.4311L32.5619 31.63H28.3435L23.8334 26.079L23.4584 25.6174L23.0681 26.0662L18.2423 31.6141H16.5106L22.3492 24.9096L22.6255 24.5924L22.3602 24.2659L16.0505 16.5H20.2843L24.4381 21.6188L24.8128 22.0806L25.2034 21.6321ZM18.3862 17.0899H17.3357L17.9981 17.9052L28.52 30.8553L28.6701 31.0401H28.9081H30.228H31.2776L30.6162 30.225L20.1076 17.2749L19.9575 17.0899H19.7193H18.3862Z" stroke="#FAF9F6"/>
</g>
<defs>
<filter id="filter0_dd_8_225" x="9.6" y="10.6" width="29.4115" height="26.93" filterUnits="userSpaceOnUse" color-interpolation-filters="sRGB">
<feFlood flood-opacity="0" result="BackgroundImageFix"/>
<feColorMatrix in="SourceAlpha" type="matrix" values="0 0 0 0 0 0 0 0 0 0 0 0 0 0 0 0 0 0 127 0" result="hardAlpha"/>
<feOffset/>
<feGaussianBlur stdDeviation="1.35"/>
<feColorMatrix type="matrix" values="0 0 0 0 0.980392 0 0 0 0 0.976471 0 0 0 0 0.964706 0 0 0 1 0"/>
<feBlend mode="normal" in2="BackgroundImageFix" result="effect1_dropShadow_8_225"/>
<feColorMatrix in="SourceAlpha" type="matrix" values="0 0 0 0 0 0 0 0 0 0 0 0 0 0 0 0 0 0 127 0" result="hardAlpha"/>
<feOffset/>
<feGaussianBlur stdDeviation="2.7"/>
<feColorMatrix type="matrix" values="0 0 0 0 0.980392 0 0 0 0 0.976471 0 0 0 0 0.964706 0 0 0 1 0"/>
<feBlend mode="normal" in2="effect1_dropShadow_8_225" result="effect2_dropShadow_8_225"/>
<feBlend mode="normal" in="SourceGraphic" in2="effect2_dropShadow_8_225" result="shape"/>
</filter>
</defs>
</svg>
