<svg xmlns="http://www.w3.org/2000/svg" width="21" height="20" viewBox="0 0 21 20" fill="none">
  <path d="M18.6333 13.2666L13.3 3.66663C12.5833 2.37496 11.5916 1.66663 10.5 1.66663C9.40831 1.66663 8.41665 2.37496 7.69998 3.66663L2.36665 13.2666C1.69165 14.4916 1.61665 15.6666 2.15831 16.5916C2.69998 17.5166 3.76665 18.025 5.16665 18.025H15.8333C17.2333 18.025 18.3 17.5166 18.8416 16.5916C19.3833 15.6666 19.3083 14.4833 18.6333 13.2666ZM9.87498 7.49996C9.87498 7.15829 10.1583 6.87496 10.5 6.87496C10.8416 6.87496 11.125 7.15829 11.125 7.49996V11.6666C11.125 12.0083 10.8416 12.2916 10.5 12.2916C10.1583 12.2916 9.87498 12.0083 9.87498 11.6666V7.49996ZM11.0916 14.7583C11.05 14.7916 11.0083 14.825 10.9666 14.8583C10.9166 14.8916 10.8666 14.9166 10.8166 14.9333C10.7666 14.9583 10.7166 14.975 10.6583 14.9833C10.6083 14.9916 10.55 15 10.5 15C10.45 15 10.3916 14.9916 10.3333 14.9833C10.2833 14.975 10.2333 14.9583 10.1833 14.9333C10.1333 14.9166 10.0833 14.8916 10.0333 14.8583C9.99165 14.825 9.94998 14.7916 9.90831 14.7583C9.75831 14.6 9.66665 14.3833 9.66665 14.1666C9.66665 13.95 9.75831 13.7333 9.90831 13.575C9.94998 13.5416 9.99165 13.5083 10.0333 13.475C10.0833 13.4416 10.1333 13.4166 10.1833 13.4C10.2333 13.375 10.2833 13.3583 10.3333 13.35C10.4416 13.325 10.5583 13.325 10.6583 13.35C10.7166 13.3583 10.7666 13.375 10.8166 13.4C10.8666 13.4166 10.9166 13.4416 10.9666 13.475C11.0083 13.5083 11.05 13.5416 11.0916 13.575C11.2416 13.7333 11.3333 13.95 11.3333 14.1666C11.3333 14.3833 11.2416 14.6 11.0916 14.7583Z" fill="#FF8933"/>
</svg>