<svg xmlns="http://www.w3.org/2000/svg" width="21" height="20" viewBox="0 0 21 20" fill="none">
  <path d="M13.2 18.5583H13.0916C9.39164 18.5583 7.60831 17.1 7.29997 13.8333C7.26664 13.4917 7.51664 13.1833 7.86664 13.15C8.19997 13.1166 8.51664 13.375 8.54997 13.7166C8.79164 16.3333 10.025 17.3083 13.1 17.3083H13.2083C16.6 17.3083 17.8 16.1083 17.8 12.7167V7.28332C17.8 3.89165 16.6 2.69165 13.2083 2.69165H13.1C10.0083 2.69165 8.77497 3.68332 8.54997 6.34998C8.50831 6.69165 8.21664 6.94998 7.86664 6.91665C7.51664 6.89165 7.26664 6.58332 7.29164 6.24165C7.57497 2.92498 9.36664 1.44165 13.0916 1.44165H13.2C17.2916 1.44165 19.0416 3.19165 19.0416 7.28332V12.7167C19.0416 16.8083 17.2916 18.5583 13.2 18.5583Z" fill="#EF4040"/>
  <path d="M13.0001 10.625H3.51672C3.17506 10.625 2.89172 10.3417 2.89172 10C2.89172 9.65833 3.17506 9.375 3.51672 9.375H13.0001C13.3417 9.375 13.6251 9.65833 13.6251 10C13.6251 10.3417 13.3417 10.625 13.0001 10.625Z" fill="#EF4040"/>
  <path d="M5.37503 13.4167C5.2167 13.4167 5.05837 13.3584 4.93337 13.2334L2.1417 10.4417C1.90003 10.2 1.90003 9.80003 2.1417 9.55837L4.93337 6.7667C5.17503 6.52503 5.57503 6.52503 5.8167 6.7667C6.05837 7.00837 6.05837 7.40837 5.8167 7.65003L3.4667 10L5.8167 12.35C6.05837 12.5917 6.05837 12.9917 5.8167 13.2334C5.70003 13.3584 5.53337 13.4167 5.37503 13.4167Z" fill="#EF4040"/>
</svg>