<svg width="869" height="559" viewBox="0 0 869 559" fill="none" xmlns="http://www.w3.org/2000/svg">
<g filter="url(#filter0_dddddd_1242_482)">
<path d="M266.577 292.25V271.3H261.377V287.1C261.377 289.95 263.727 292.25 266.577 292.25ZM276.277 292.25V271.3H281.427V292.25H276.277ZM291.127 292.25V271.3H296.327V287.1C296.327 289.95 293.977 292.25 291.127 292.25ZM276.277 292.25V297H266.577V292.25H276.277ZM291.127 292.25V297H281.477V292.25H291.127ZM304.944 271.3H321.544C324.144 271.3 326.244 273.4 326.244 276V292.3H321.094V286.5H307.544V292.3H321.094V297H307.094C304.444 297 302.344 294.9 302.344 292.3V286.5C302.344 283.9 304.444 281.8 307.094 281.8H321.094V276H304.944V271.3ZM337.377 297H332.227V262H337.377V297ZM348.509 297H343.359V262H348.509V297ZM359.242 271.3H373.142C375.742 271.3 377.842 273.4 377.842 276.05V282.4H377.792C377.592 284.8 375.592 286.65 373.142 286.65H359.692V281.9H372.692V276.05H359.692V281.9C356.842 281.9 354.492 279.6 354.492 276.75V276.05H354.542C354.542 273.4 356.642 271.3 359.242 271.3ZM354.492 291.85V291.8C354.492 288.95 356.842 286.65 359.692 286.65V292.3H376.892V297H359.692C356.092 297 354.492 294.7 354.492 291.85ZM393.538 262.15V271.2C390.688 271.2 388.338 268.9 388.338 266.05V262.15H393.538ZM393.538 277.1V292.25H403.438V297H393.138C390.488 297 388.338 294.85 388.338 292.25V277.1H383.838V272.15H400.438V277.1H393.538ZM432.312 271.3H442.262V276.05H427.562C427.562 273.4 429.662 271.3 432.312 271.3ZM427.562 276.05L427.612 292.2H442.412V296.95H427.612C424.712 296.95 422.412 294.7 422.412 291.85V276.05H427.562ZM448.389 267.3V262H453.589V272.45C450.739 272.45 448.389 270.15 448.389 267.3ZM453.589 272.45H466.189C468.939 272.45 471.189 274.7 471.189 277.45V297H465.989V277.45H453.589V272.45ZM453.589 297H448.389V277.45H453.589V297ZM481.947 271.3H495.847C498.447 271.3 500.547 273.4 500.547 276.05V282.4H500.497C500.297 284.8 498.297 286.65 495.847 286.65H482.397V281.9H495.397V276.05H482.397V281.9C479.547 281.9 477.197 279.6 477.197 276.75V276.05H477.247C477.247 273.4 479.347 271.3 481.947 271.3ZM477.197 291.85V291.8C477.197 288.95 479.547 286.65 482.397 286.65V292.3H499.597V297H482.397C478.797 297 477.197 294.7 477.197 291.85ZM516.443 271.3H526.393V276.05H511.693C511.693 273.4 513.793 271.3 516.443 271.3ZM511.693 276.05L511.743 292.2H526.543V296.95H511.743C508.843 296.95 506.543 294.7 506.543 291.85V276.05H511.693ZM537.67 271.3V281.65H549.72V286.4H537.67V297H532.52V271.3H537.67ZM554.92 271.3V276.5C554.92 279.35 552.57 281.65 549.72 281.65V271.3H554.92ZM554.92 291.55V297H549.72V286.4C552.57 286.4 554.92 288.7 554.92 291.55ZM565.688 271.3H579.588C582.188 271.3 584.288 273.4 584.288 276.05V282.4H584.238C584.038 284.8 582.038 286.65 579.588 286.65H566.138V281.9H579.138V276.05H566.138V281.9C563.288 281.9 560.938 279.6 560.938 276.75V276.05H560.988C560.988 273.4 563.088 271.3 565.688 271.3ZM560.938 291.85V291.8C560.938 288.95 563.288 286.65 566.138 286.65V292.3H583.338V297H566.138C562.538 297 560.938 294.7 560.938 291.85ZM595.583 271.3V276H607.633V271.3H595.583ZM590.283 297V281.15C590.283 278.3 592.633 276 595.483 276V297H590.283Z" fill="#DADADA"/>
</g>
<defs>
<filter id="filter0_dddddd_1242_482" x="0.165588" y="0.788635" width="868.679" height="557.423" filterUnits="userSpaceOnUse" color-interpolation-filters="sRGB">
<feFlood flood-opacity="0" result="BackgroundImageFix"/>
<feColorMatrix in="SourceAlpha" type="matrix" values="0 0 0 0 0 0 0 0 0 0 0 0 0 0 0 0 0 0 127 0" result="hardAlpha"/>
<feOffset/>
<feGaussianBlur stdDeviation="3.10966"/>
<feColorMatrix type="matrix" values="0 0 0 0 0.854902 0 0 0 0 0.854902 0 0 0 0 0.854902 0 0 0 1 0"/>
<feBlend mode="normal" in2="BackgroundImageFix" result="effect1_dropShadow_1242_482"/>
<feColorMatrix in="SourceAlpha" type="matrix" values="0 0 0 0 0 0 0 0 0 0 0 0 0 0 0 0 0 0 127 0" result="hardAlpha"/>
<feOffset/>
<feGaussianBlur stdDeviation="6.21932"/>
<feColorMatrix type="matrix" values="0 0 0 0 0.854902 0 0 0 0 0.854902 0 0 0 0 0.854902 0 0 0 1 0"/>
<feBlend mode="normal" in2="effect1_dropShadow_1242_482" result="effect2_dropShadow_1242_482"/>
<feColorMatrix in="SourceAlpha" type="matrix" values="0 0 0 0 0 0 0 0 0 0 0 0 0 0 0 0 0 0 127 0" result="hardAlpha"/>
<feOffset/>
<feGaussianBlur stdDeviation="21.7676"/>
<feColorMatrix type="matrix" values="0 0 0 0 0.854902 0 0 0 0 0.854902 0 0 0 0 0.854902 0 0 0 1 0"/>
<feBlend mode="normal" in2="effect2_dropShadow_1242_482" result="effect3_dropShadow_1242_482"/>
<feColorMatrix in="SourceAlpha" type="matrix" values="0 0 0 0 0 0 0 0 0 0 0 0 0 0 0 0 0 0 127 0" result="hardAlpha"/>
<feOffset/>
<feGaussianBlur stdDeviation="43.5352"/>
<feColorMatrix type="matrix" values="0 0 0 0 0.854902 0 0 0 0 0.854902 0 0 0 0 0.854902 0 0 0 1 0"/>
<feBlend mode="normal" in2="effect3_dropShadow_1242_482" result="effect4_dropShadow_1242_482"/>
<feColorMatrix in="SourceAlpha" type="matrix" values="0 0 0 0 0 0 0 0 0 0 0 0 0 0 0 0 0 0 127 0" result="hardAlpha"/>
<feOffset/>
<feGaussianBlur stdDeviation="74.6318"/>
<feColorMatrix type="matrix" values="0 0 0 0 0.854902 0 0 0 0 0.854902 0 0 0 0 0.854902 0 0 0 1 0"/>
<feBlend mode="normal" in2="effect4_dropShadow_1242_482" result="effect5_dropShadow_1242_482"/>
<feColorMatrix in="SourceAlpha" type="matrix" values="0 0 0 0 0 0 0 0 0 0 0 0 0 0 0 0 0 0 127 0" result="hardAlpha"/>
<feOffset/>
<feGaussianBlur stdDeviation="130.606"/>
<feColorMatrix type="matrix" values="0 0 0 0 0.854902 0 0 0 0 0.854902 0 0 0 0 0.854902 0 0 0 1 0"/>
<feBlend mode="normal" in2="effect5_dropShadow_1242_482" result="effect6_dropShadow_1242_482"/>
<feBlend mode="normal" in="SourceGraphic" in2="effect6_dropShadow_1242_482" result="shape"/>
</filter>
</defs>
</svg>
