<svg width="30" height="30" viewBox="0 0 20 17" fill="none" xmlns="http://www.w3.org/2000/svg">
<path d="M13.2 18.5583H13.0916C9.39164 18.5583 7.60831 17.1 7.29997 13.8333C7.26664 13.4917 7.51664 13.1833 7.86664 13.15C8.19997 13.1167 8.51664 13.375 8.54997 13.7167C8.79164 16.3333 10.025 17.3083 13.1 17.3083H13.2083C16.6 17.3083 17.8 16.1083 17.8 12.7167V7.28335C17.8 3.89168 16.6 2.69168 13.2083 2.69168H13.1C10.0083 2.69168 8.77497 3.68335 8.54997 6.35001C8.50831 6.69168 8.21664 6.95001 7.86664 6.91668C7.51664 6.89168 7.26664 6.58335 7.29164 6.24168C7.57497 2.92501 9.36664 1.44168 13.0916 1.44168H13.2C17.2916 1.44168 19.0416 3.19168 19.0416 7.28335V12.7167C19.0416 16.8083 17.2916 18.5583 13.2 18.5583Z" fill="#EF4040"/>
<path d="M13 10.625H3.51666C3.175 10.625 2.89166 10.3417 2.89166 10C2.89166 9.65833 3.175 9.375 3.51666 9.375H13C13.3417 9.375 13.625 9.65833 13.625 10C13.625 10.3417 13.3417 10.625 13 10.625Z" fill="#EF4040"/>
<path d="M5.37497 13.4167C5.21664 13.4167 5.05831 13.3583 4.93331 13.2333L2.14164 10.4417C1.89997 10.2 1.89997 9.8 2.14164 9.55834L4.93331 6.76667C5.17497 6.525 5.57497 6.525 5.81664 6.76667C6.05831 7.00834 6.05831 7.40834 5.81664 7.65L3.46664 10L5.81664 12.35C6.05831 12.5917 6.05831 12.9917 5.81664 13.2333C5.69997 13.3583 5.5333 13.4167 5.37497 13.4167Z" fill="#EF4040"/>
</svg>
